# xmcd
#
# Track frame offsets:
#	150
#	19230
#	33872
#	48127
#	60804
#	77566
#	93381
#	110489
#	125537
#	139994
#	154674
#	176794
#	192467
#	208810
#
# Disc length: 3021 seconds
# Revision: 1
# Processed by: cddbd v1.5.2PL0 Copyright (c) Steve Scherf et al.
# Submitted via: dBpowerAMP V12.0
#
DISCID=b90bcb0e
DTITLE=Various Artist - Steve Austin's - Stone Cold Country
DYEAR=1999
DGENRE=Country
TTITLE0=Waylon Jennings - I've Always Been Crazy
TTITLE1=Earl Thomas Conley - Fire and Smoke
TTITLE2=David Allen Coe - The Ride
TTITLE3=Merle Haggard and The Strangers - Take a Lot of Pride in What I Am
TTITLE4=Diamond Rio - Love a Little Stronger
TTITLE5=Sammy Kershaw - Yard Sale
TTITLE6=Alan Jackson - Midnight in Montgomery
TTITLE7=John Anderson - Let Go of The Stone
TTITLE8=Ricky Skaggs - Highway 10 Blues
TTITLE9=Sawyer Brown - Some Girls Do
TTITLE10=Conway Twitty - That's My Job
TTITLE11=Tracy Byrd - (Don't Take Her) She's All I Got
TTITLE12=Hank Williams Jr. - I've Got Rights
TTITLE13=Willie Nelson - Whiskey River
EXTD=
EXTT0=
EXTT1=
EXTT2=
EXTT3=
EXTT4=
EXTT5=
EXTT6=
EXTT7=
EXTT8=
EXTT9=
EXTT10=
EXTT11=
EXTT12=
EXTT13=
PLAYORDER=
